<svg preserveAspectRatio="none" width="100%" height="100%" overflow="visible" style="display: block;" viewBox="0 0 20 20" fill="none" xmlns="http://www.w3.org/2000/svg">
<g id="Activity">
<path id="Activity_2" d="M13.4502 1.78027C13.4102 2.03026 13.3896 2.28028 13.3896 2.53027C13.3896 4.78027 15.2102 6.59961 17.4502 6.59961C17.7001 6.59959 17.9405 6.57026 18.1904 6.53027V14.5996C18.1903 17.9904 16.1899 20 12.79 20H5.40137C2.00047 20 0.000121538 17.9904 0 14.5996V7.2002C4.10928e-05 3.80026 2.0004 1.78027 5.40137 1.78027H13.4502ZM13.6514 7.86035C13.3805 7.83037 13.1112 7.95014 12.9502 8.16992L10.5313 11.3008L7.75977 9.12012C7.58995 8.99035 7.39018 8.9391 7.19043 8.95996C6.99143 8.98996 6.81143 9.09977 6.69043 9.25977L3.73145 13.1104L3.66992 13.2002C3.49993 13.5192 3.57991 13.9294 3.87988 14.1504C4.01984 14.2404 4.16991 14.3007 4.33984 14.3008C4.57084 14.3108 4.78969 14.189 4.92969 14L7.44043 10.7695L10.29 12.9102L10.3799 12.9697C10.6998 13.1396 11.1001 13.0605 11.3301 12.7598L14.2197 9.03027L14.1797 9.05078C14.3396 8.83087 14.3696 8.5507 14.2598 8.30078C14.1508 8.0509 13.9102 7.88048 13.6514 7.86035ZM17.5898 0C18.9198 0 20 1.08016 20 2.41016C19.9999 3.74008 18.9198 4.82031 17.5898 4.82031C16.26 4.82017 15.1798 3.74 15.1797 2.41016C15.1797 1.08024 16.26 0.000138996 17.5898 0Z" fill="var(--fill-0, #030229)"/>
</g>
</svg>
