<svg preserveAspectRatio="none" width="100%" height="100%" overflow="visible" style="display: block;" viewBox="0 0 19 20" fill="none" xmlns="http://www.w3.org/2000/svg">
<g id="Category" opacity="0.4">
<path id="Category_2" d="M5.36035 11.4697C6.6367 11.4699 7.65995 12.6106 7.66016 14.0303V17.4395C7.66016 18.8493 6.63682 19.9998 5.36035 20H2.2998C1.03223 20 0 18.8495 0 17.4395V14.0303C0.000206666 12.6105 1.03236 11.4697 2.2998 11.4697H5.36035ZM15.8086 11.4697C17.076 11.4698 18.1082 12.6105 18.1084 14.0303V17.4395C18.1084 18.8494 17.0761 20 15.8086 20H12.748C11.4715 19.9999 10.4482 18.8494 10.4482 17.4395V14.0303C10.4485 12.6106 11.4716 11.4698 12.748 11.4697H15.8086ZM5.36035 0C6.63669 0.000198342 7.65994 1.14988 7.66016 2.56055V5.96973C7.66016 7.3896 6.63682 8.53008 5.36035 8.53027H2.2998C1.03223 8.53027 0 7.38973 0 5.96973V2.56055C0.000221003 1.14975 1.03237 0 2.2998 0H5.36035ZM15.8086 0C17.076 3.82885e-05 18.1082 1.14978 18.1084 2.56055V5.96973C18.1084 7.3897 17.0761 8.53024 15.8086 8.53027H12.748C11.4715 8.53015 10.4482 7.38965 10.4482 5.96973V2.56055C10.4485 1.14983 11.4717 0.000120756 12.748 0H15.8086Z" fill="var(--fill-0, #030229)"/>
</g>
</svg>
