<svg preserveAspectRatio="none" width="100%" height="100%" overflow="visible" style="display: block;" viewBox="0 0 19 20" fill="none" xmlns="http://www.w3.org/2000/svg">
<g id="Chart">
<path id="Chart_2" fill-rule="evenodd" clip-rule="evenodd" d="M4.82583 0H13.2814C16.3607 0 18.0991 1.929 18.1082 5.33V14.67C18.1082 18.07 16.3607 20 13.2814 20H4.82583C1.74653 20 0 18.07 0 14.67V5.33C0 1.929 1.74653 0 4.82583 0ZM9.09846 15.8599C9.48869 15.8599 9.81374 15.5399 9.84995 15.1099V4.91994C9.88617 4.60994 9.75126 4.29894 9.5068 4.12994C9.25238 3.95994 8.94454 3.95994 8.70099 4.12994C8.45562 4.29894 8.32072 4.60994 8.34697 4.91994V15.1099C8.39315 15.5399 8.71819 15.8599 9.09846 15.8599ZM13.2642 15.8601C13.6445 15.8601 13.9696 15.5401 14.0157 15.1101V11.8301C14.042 11.5091 13.9071 11.2101 13.6617 11.0401C13.4182 10.8701 13.1103 10.8701 12.8568 11.0401C12.6114 11.2101 12.4765 11.5091 12.5127 11.8301V15.1101C12.549 15.5401 12.874 15.8601 13.2642 15.8601ZM5.63075 15.11C5.59454 15.54 5.26949 15.86 4.87926 15.86C4.48994 15.86 4.16399 15.54 4.12868 15.11V8.19997C4.10152 7.88897 4.23642 7.57997 4.48179 7.40997C4.72534 7.23997 5.03409 7.23997 5.27855 7.40997C5.5221 7.57997 5.65882 7.88897 5.63075 8.19997V15.11Z" fill="var(--fill-0, #605BFF)"/>
</g>
</svg>
