<svg width="240" height="23" viewBox="0 0 240 23" fill="none" xmlns="http://www.w3.org/2000/svg">
<path d="M200.868 21.14C200.6 21.578 200.195 21.9151 199.716 22.099C199.203 22.2782 198.652 22.325 198.116 22.235C197.501 22.1447 196.907 21.9434 196.364 21.641L168.957 6.117V22.25H164.005V3.032C163.969 2.36691 164.123 1.70536 164.448 1.124C164.719 0.694446 165.126 0.36885 165.605 0.199997C166.115 0.0284966 166.662 -0.00598457 167.19 0.0999985C167.805 0.213969 168.4 0.41605 168.957 0.699997L196.364 16.077V0H201.311V19.218C201.348 19.8876 201.194 20.5541 200.868 21.14Z" fill="black"/>
<path d="M6.65107 4.92407H35.7051L35.7391 7.26846e-05H6.65107C4.89534 -0.00814903 3.20825 0.681426 1.96095 1.9171C0.713645 3.15278 0.0082944 4.83334 7.26854e-05 6.58907C-0.00814903 8.3448 0.681418 10.0319 1.9171 11.2792C3.15277 12.5265 4.83333 13.2318 6.58906 13.2401H6.71406L29.6801 13.2141H29.7531C30.2916 13.2188 30.8062 13.4373 31.1836 13.8215C31.561 14.2057 31.7703 14.724 31.7656 15.2626C31.7608 15.8011 31.5423 16.3157 31.1581 16.6931C30.774 17.0705 30.2556 17.2798 29.7171 17.2751H1.31709V22.1961H29.7171C31.5433 22.1862 33.2922 21.4581 34.5859 20.1691C35.8795 18.8801 36.6139 17.1338 36.6303 15.3077C36.6467 13.4815 35.9438 11.7223 34.6736 10.4103C33.4033 9.09821 31.6678 8.33876 29.8421 8.29607L29.7171 8.29107L6.66706 8.31707H6.63908C6.41662 8.31602 6.19653 8.27116 5.99141 8.18506C5.78628 8.09896 5.60014 7.9733 5.44358 7.81525C5.1274 7.49606 4.95095 7.06435 4.95308 6.61507C4.9552 6.16579 5.13572 5.73576 5.45491 5.41957C5.77409 5.10339 6.20579 4.92694 6.65507 4.92907L6.65107 4.92407Z" fill="black"/>
<path d="M209.651 4.92407H238.705L238.739 7.26846e-05H209.651C207.895 -0.00814903 206.208 0.681426 204.961 1.9171C203.714 3.15278 203.008 4.83334 203 6.58907C202.992 8.3448 203.681 10.0319 204.917 11.2792C206.153 12.5265 207.833 13.2318 209.589 13.2401H209.714L232.68 13.2141H232.753C233.292 13.2188 233.806 13.4373 234.184 13.8215C234.561 14.2057 234.77 14.724 234.766 15.2626C234.761 15.8011 234.542 16.3157 234.158 16.6931C233.774 17.0705 233.256 17.2798 232.717 17.2751H204.317V22.1961H232.717C234.543 22.1862 236.292 21.4581 237.586 20.1691C238.88 18.8801 239.614 17.1338 239.63 15.3077C239.647 13.4815 238.944 11.7223 237.674 10.4103C236.403 9.09821 234.668 8.33876 232.842 8.29607L232.717 8.29107L209.667 8.31707H209.639C209.417 8.31602 209.197 8.27116 208.991 8.18506C208.786 8.09896 208.6 7.9733 208.444 7.81525C208.127 7.49606 207.951 7.06435 207.953 6.61507C207.955 6.16579 208.136 5.73576 208.455 5.41957C208.774 5.10339 209.206 4.92694 209.655 4.92907L209.651 4.92407Z" fill="black"/>
<path d="M60.904 0H55.259C54.9624 0.0163193 54.672 0.092095 54.4052 0.222824C54.1385 0.353553 53.9007 0.536563 53.706 0.760994L37 22.195H43.252L58.076 3.117L66.004 13.323H52.528L56.896 17.691H69.296L72.908 22.191H79.168L62.452 0.758995C62.2584 0.534771 62.0214 0.351967 61.7554 0.221542C61.4894 0.0911181 61.1998 0.0157664 60.904 0Z" fill="black"/>
<rect x="119" width="5" height="22" fill="black"/>
<rect x="126" y="5" width="5" height="36" transform="rotate(-90 126 5)" fill="black"/>
<rect x="126" y="13" width="5" height="36" transform="rotate(-90 126 13)" fill="black"/>
<rect x="126" y="22" width="5" height="36" transform="rotate(-90 126 22)" fill="black"/>
<path d="M81 0H86V22H81V0Z" fill="black"/>
<path d="M110.489 4.83478H86.0002L86 7.13667e-05H110.489C112.208 -0.00800127 113.86 0.66907 115.08 1.88234C116.301 3.09561 116.992 4.7457 117 6.4696C117.008 8.19349 116.333 9.84999 115.123 11.0747C113.914 12.2994 112.269 12.9919 110.55 13H110.428L92 12.9745L87.9109 8.14074L110.474 8.16626H110.501C110.719 8.16523 110.934 8.12119 111.135 8.03665C111.336 7.95211 111.518 7.82872 111.671 7.67354C111.981 7.36014 112.154 6.93626 112.152 6.49513C112.15 6.05399 111.973 5.63176 111.66 5.32131C111.348 5.01085 110.925 4.83761 110.486 4.83969L110.489 4.83478Z" fill="black"/>
</svg>
