<svg preserveAspectRatio="none" width="100%" height="100%" overflow="visible" style="display: block;" viewBox="0 0 18 16" fill="none" xmlns="http://www.w3.org/2000/svg">
<g id="Ticket">
<path id="Ticket_2" fill-rule="evenodd" clip-rule="evenodd" d="M17.055 6.53905C16.9383 6.67058 16.7799 6.74574 16.6132 6.74574C15.9963 6.74574 15.4962 7.30945 15.4962 7.9953C15.4962 8.68585 15.9905 9.24674 16.6015 9.25426C16.9458 9.25802 17.2384 9.5286 17.2384 9.91662V12.3265C17.2384 14.3549 15.7796 16 13.9791 16H11.2616C10.9807 16 10.7531 15.7435 10.7531 15.4269V13.3975C10.7531 13.0029 10.4781 12.6929 10.128 12.6929C9.78618 12.6929 9.50277 13.0029 9.50277 13.3975V15.4269C9.50277 15.7435 9.2752 16 8.99512 16H3.25928C1.46709 16 0 14.3558 0 12.3265V9.91662C0 9.5286 0.292585 9.25802 0.636852 9.25426C1.2487 9.24674 1.74217 8.68585 1.74217 7.9953C1.74217 7.32824 1.2587 6.8209 0.625182 6.8209C0.458467 6.8209 0.300087 6.74574 0.183387 6.61421C0.0666861 6.48268 0 6.30417 0 6.11627V3.68291C0 1.65731 1.47043 0 3.26762 0H8.99512C9.2752 0 9.50277 0.256489 9.50277 0.573106V2.97827C9.50277 3.36348 9.78618 3.68291 10.128 3.68291C10.4781 3.68291 10.7531 3.36348 10.7531 2.97827V0.573106C10.7531 0.256489 10.9807 0 11.2616 0H13.9791C15.7796 0 17.2384 1.64416 17.2384 3.67352V6.0411C17.2384 6.22901 17.1717 6.40752 17.055 6.53905ZM10.128 10.8702C10.4781 10.8702 10.7531 10.5508 10.7531 10.1656V6.40752C10.7531 6.02231 10.4781 5.70288 10.128 5.70288C9.78618 5.70288 9.50277 6.02231 9.50277 6.40752V10.1656C9.50277 10.5508 9.78618 10.8702 10.128 10.8702Z" fill="var(--fill-0, #030229)"/>
</g>
</svg>
